<svg fill="none" viewBox="0 0 47 13" xmlns="http://www.w3.org/2000/svg"><g fill="#fff"><path d="m46.3916 5.61388h-4.9976v-4.995716h-2.1342v4.995716h-4.9976v2.13604h4.9976v4.99568h2.1342v-4.99568h4.9976z"/><path d="m.851685.709103h5.698055c2.22504 0 3.63556.379227 4.66676 1.356307 1.0313.97709 1.4105 2.44175 1.4105 4.34175 0 5.48134-3.74387 6.29594-6.78347 6.29594h-4.991845v-.3793c1.247965-.0541 1.302135-.1625 1.302135-1.0312v-9.11884c0-.92291-.2167-.97708-1.302135-1.03126zm3.799995.977087v9.66061c0 .7062.2167.9229 1.41048.9229 2.17087 0 3.85224-1.1396 3.85224-5.69808 0-3.25631-1.13962-5.42718-3.79806-5.42718-1.24796-.05611-1.46466.05224-1.46466.54175zm12.58992 11.01691h-4.0167v-.3793c1.0854-.1625 1.4105-.1625 1.5188-1.3021.0542-.5979.1084-1.573.1084-2.44174v-6.40426c0-.92291-.1626-.97709-1.4647-1.03126v-.433403h3.8l3.6355 8.302323h.0542l3.2021-8.302323h3.7439v.379223c-1.3021.05418-1.3563.10835-1.3563 1.03126v9.11688c0 .9229.0542.9771 1.3563 1.0313v.3792h-5.1021v-.3792c1.1938-.1084 1.3021-.1084 1.3021-1.0313v-8.95629l-3.798 10.36489h-.6521l-4.1231-10.2546h-.0542v6.13339c0 .92291.0542 1.84581.1084 2.44171.1083 1.1938.5417 1.1938 1.6833 1.3022z"/></g></svg>