<svg fill="none" viewBox="0 0 46 17" xmlns="http://www.w3.org/2000/svg"><g fill="#c5ad67"><path clip-rule="evenodd" d="m45.0411 8.5c0 4.6944-3.8252 8.5-8.5438 8.5s-8.5437-3.8056-8.5437-8.5c0-4.69442 3.8251-8.5 8.5437-8.5s8.5438 3.80558 8.5438 8.5zm-7.6005-.93165h4.4137v1.87681h-4.4137v4.38944h-1.8848v-4.38944h-4.4137v-1.87681h4.4137v-4.38939h1.8848z" fill-rule="evenodd"/><path d="m4.99131 12.6054v-8.48811c0-.4301.19138-.5253 1.29352-.476 2.34783 0 3.35429 1.9074 3.35429 4.7685 0 4.00521-1.48491 5.00651-3.40213 5.00651-1.0543 0-1.24568-.1904-1.24568-.8109z"/><path clip-rule="evenodd" d="m29.84 1.82761c-1.7993 1.7153-2.9134 4.0902-2.9134 6.715 0 2.60779 1.0987 4.96909 2.8792 6.68099h-29.8058v-13.44699h29.84zm-23.1724 1.43118h-5.03229v.3808c.95862.0476 1.15.0952 1.15.9061v8.01211c0 .7633-.04785.8585-1.15.9061v.3332h4.40859c2.68445 0 5.9909-.7157 5.9909-5.53181 0-1.6694-.3349-2.9563-1.2457-3.8148-.91076-.8585-2.15644-1.1917-4.1215-1.1917zm5.8952 10.53831h3.5474l-.0479-.3808c-.0334-.0032-.0662-.0062-.0982-.0092-.935-.0872-1.2959-.1208-1.3884-1.1349-.0478-.5236-.0957-1.3345-.0957-2.1454v-5.38901h.0479l3.6413 9.01001h.5759l3.3543-9.10691v7.86931c0 .8023-.0937.8108-1.117.9031l-.033.003v.3332h4.5059v-.3332c-1.1499-.0476-1.1978-.0952-1.1978-.9061v-8.01041c0-.8109.0479-.8585 1.1978-.9061v-.3332h-3.3064l-2.828 7.29471h-.0478l-3.2108-7.29471h-3.356v.3808c1.15.0476 1.2936.0952 1.2936.9061v5.62701c0 .7633-.0479 1.6201-.0957 2.1454-.0918.9602-.3596.9996-1.2268 1.1272-.0371.0054-.0753.011-.1146.0169z" fill-rule="evenodd"/></g></svg>